<?xml version="1.0" encoding="utf-8"?>
<!-- Generator: Adobe Illustrator 15.1.0, SVG Export Plug-In . SVG Version: 6.00 Build 0)  -->
<!DOCTYPE svg PUBLIC "-//W3C//DTD SVG 1.1//EN" "http://www.w3.org/Graphics/SVG/1.1/DTD/svg11.dtd">
<svg version="1.1" xmlns="http://www.w3.org/2000/svg" xmlns:xlink="http://www.w3.org/1999/xlink" x="0px" y="0px"
	 width="437.978px" height="792.4px" viewBox="0 0 437.978 792.4" enable-background="new 0 0 437.978 792.4" xml:space="preserve">
<g id="Calque_1">
</g>
<g id="Calque_6">
</g>
<g id="Calque_4">
</g>
<g id="Calque_3">
	<ellipse fill="#F4E0D9" cx="358.721" cy="590.638" rx="20.78" ry="19.626"/>
	<ellipse fill="#F4E0D9" cx="114.519" cy="566.06" rx="20.781" ry="19.626"/>
	<path fill="#EAE083" d="M168.935,532.405c0,0-30.633-4.003-22.475-54.493c-5.08-3.848-32.633-11.391-22.474-45.872
		c9.852-4.926,30.479,3.388,30.479,3.388l2.587-126.321l202.593-48.379c16.02,56.375,30.03,129.492,42.189,182.368
		c7.851-9.313,21.936-13.161,21.936-13.161s4.695,23.398-14.315,50.105c2.695,3.644,9.003,8.389,10.852,35.096
		c1.846,26.708-26.323,29.787-26.323,29.787"/>
	<path fill="#F4E0D9" d="M363.505,374.594c0,0,6.465,22.474,6.773,36.329c2.462,23.705-50.49,74.81-92.358,76.965
		c-7.681,0.643-100.288,10.16-108.985-76.35c20.935-30.556,12.314-52.337,12.314-52.337s5.85,8.004,29.555,9.852
		c23.706,1.848,89.282-41.562,87.434-72.04c16.933,74.811,84.356,56.647,84.356,56.647l7.801,37.419l-11.495-5.154
		c-24.935-12.621-22.987-30.62-22.99-30.609"/>
	<path fill="#AB4141" d="M204.185,436.687l132.844-18.299c0,0,11.699,37.867-67.422,53.288
		C210.496,476.575,204.185,436.687,204.185,436.687z"/>
	<polygon fill="#432918" points="116.598,318.64 431.852,243.521 314.246,227.512 178.786,258.298 114.52,309.943 	"/>
	<polygon fill="#432918" points="182.634,231.514 300.237,202.729 290.387,164.091 173.245,189.029 	"/>
	<polygon fill="#B2B2B2" points="314.248,227.512 308.551,201.113 300.237,202.729 182.634,231.514 174.053,233.554 
		178.786,258.298 	"/>
	<path fill="none" d="M300.237,202.729"/>
	<path fill="none" d="M234.446,502.529l4.411,87.187c0,0-2.439,2.992-2.571,8.081c-0.045,4.503,4.648,5.472,9.229,5.541
		c4.771,0,8.428-2.694,8.648-7.858c-0.077-3-2.414-6.688-2.414-6.688l-3.954-88.177"/>
	<path fill="none" d="M238.857,589.715c0,0,6.157-4.158,12.893-0.925"/>
	<path fill="none" d="M329.244,575.341c-7.359-1.328-10.996,0.981-10.996,0.981"/>
	<path fill="#E9D62A" d="M393.982,544.921c-13.931,4.925-31.678,7.054-31.678,7.054l-18.251,4.418c0,0-94.767,9.462-118.632,8.513
		c-23.866-0.949-31.043-8.078-31.043-8.078l-26.029-24.529L393.982,544.921z"/>
	<circle cx="334.857" cy="389.292" r="7.042"/>
	<circle cx="207.406" cy="402.824" r="7.042"/>
	<polygon fill="#936037" points="109.821,584.355 139.379,765.351 153.849,765.351 124.221,582.929 98.125,434.705 81.809,438.4 	
		"/>
	<polyline points="98.125,434.705 105.514,432.549 98.125,403.611 69.802,409.768 75.651,439.63 81.809,438.4 	"/>
	<path fill="none" d="M316.199,578.5c0,0,7.854-8.627,15.034-0.284"/>
	<circle fill="#C6970F" cx="245.304" cy="597.104" r="9.544"/>
	<circle fill="#C6970F" cx="323.717" cy="584.473" r="9.544"/>
	<polygon fill="#F4E0D9" points="344.354,644.556 352.422,695.928 319.865,706.495 296.686,650.404 	"/>
	<polygon points="360.273,693.619 355.886,754.114 386.825,770.277 333.199,772.586 314.173,708.628 	"/>
	<polygon fill="#F4E0D9" points="225.359,654.339 224.582,706.334 258.301,712.225 273.377,653.436 	"/>
	<polygon points="215.881,696.615 222.46,756.91 192.127,774.186 245.801,774.545 262.492,709.94 	"/>
	<polygon fill="#432918" points="227.31,574.805 344.417,559.698 378.283,639.435 204.185,660.985 	"/>
	<path fill="none" d="M227.31,578.5"/>
	<path fill="none" d="M339.839,487.434"/>
	<path fill="#616160" d="M340.039,483.806l55.067,53.33l-22.397,38.791l-15.469-4.625l7.852-37.167l-26.786-12.237l6.118,46.179
		l-115.102,11.546l-6.312-35.559l-88.203,24.629c0,0-3.232-13.854-5.542-16.779c-2.309-2.924,82.816-49.72,82.816-49.72
		l128.427-18.454"/>
	<g>
		<path fill="#1E3C73" d="M325.403,485.82l3.954,85.695c0,0,3.842,4.639,3.842,8.875c0,7.38-6.085,9.855-9.142,9.855
			c-3.085,0-9.198-1.383-9.423-8.068c-0.225-6.687,4.038-9.683,4.038-9.683l-6.554-84.717"/>
	</g>
	<path fill="#F3E6D4" d="M258.753,495.348c0,0-7.465,23.25,23.475,29.253c34.637-12.699,21.293-35.676,21.293-35.676"/>
	<path fill="#1E3C73" d="M234.387,498.834l4.411,87.187c0,0-2.439,2.992-2.57,8.08c-0.046,4.504,4.646,5.473,9.229,5.542
		c4.771,0,8.428-2.693,8.648-7.856c-0.076-3.002-2.414-6.69-2.414-6.69l-3.955-88.178"/>
	<path fill="#EAE083" d="M355.5,354.707c0,0-1.538,31.71,34.895,36.726l-7.801-37.418L355.5,354.707z"/>
	<circle fill="#AFC60F" cx="323.747" cy="584.473" r="10.621"/>
	<circle fill="#AFC60F" cx="245.304" cy="593.94" r="10.621"/>
	<path fill="#FFFFFF" d="M207.406,445.696l129.915-18.022c0,0,1.556-6.515-0.293-9.285c-1.847-2.771-132.844,18.299-132.844,18.299
		S204.52,440.827,207.406,445.696z"/>
	<path fill="#FFFFFF" d="M233.522,469.2l81.753-13.035c0,0-17.883,11.856-40.876,15.248
		C247.748,475.344,233.522,469.2,233.522,469.2z"/>
	<polyline fill="#432918" points="187.188,186.06 187.188,0 274.399,167.495 	"/>
	<path fill="#CA9E67" d="M68.592,409.457c0,0-46.926,1.511-51.889-44.55s37.164-56.569,33.177-100.619
		c-3.986-44.049-5.337-56.764-8.774-62.205c-3.437-5.442,70.624,116.558,76.016,148.543c4.633,33.702,4.633,47.369-20.137,53.004"/>
	<polyline fill="none" stroke="#000000" stroke-miterlimit="10" points="296.686,334.328 291.234,349.328 300.237,354.014 
		291.234,365.328 	"/>
</g>
<g id="Calque_5">
</g>
</svg>
